{"title":"Mardaani [2014] - DVDSCREENER - 720p - x264 - AAC - (Cleaned) -","uid":10854821,"size":1077488601,"categoryP":"video","categoryS":"hd___movies","magnet":"?xt=urn:btih:cdec86d88d0999d2403400a7c8d1f1b221d9d55d&amp;dn=Mardaani+%5B2014%5D+-+DVDSCREENER+-+720p+-+x264+-+AAC+-+%28Cleaned%29+-+&amp;tr=udp%3A%2F%2Ftracker.openbittorrent.com%3A80&amp;tr=udp%3A%2F%2Fopen.demonii.com%3A1337&amp;tr=udp%3A%2F%2Ftracker.coppersurfer.tk%3A6969&amp;tr=udp%3A%2F%2Fexodus.desync.com%3A6969","seeders":2,"leechers":0,"uploader":"TeamMCT","files":11,"time":1408832528,"description":"[CENTER]\n[quote=&quot;Team MCT ~ deep1007 @ MovieClub&quot;][COLOR=&quot;Brown&quot;][SIZE=&quot;4&quot;][b]Problem-* Screenshots Wont Be Clear As It Is When It's Downloaded![/b][/SIZE][/COLOR]\n[COLOR=&quot;Purple&quot;][SIZE=&quot;4&quot;][b]Reason-* Screenshots Have Been Taken From Windows Server![/b][/SIZE][/COLOR]\n[COLOR=&quot;Green&quot;][SIZE=&quot;4&quot;][b]Solution-* Please Check The Sample Link Provided Below![/b][/SIZE][/COLOR][/quote]\n\n[quote=&quot;Downloaders&quot;][COLOR=&quot;Red&quot;][SIZE=&quot;3&quot;][b]Please Don't Complain if the video is not working! It has been tested!\nTry a different Video Player...If Any problems Please comment and, We as a team will help you![/b][/SIZE][/COLOR][/quote][/CENTER]\n\n\n[CENTER][IMG]http://i.imgbox.com/S2O11Kn8.png[/IMG][/CENTER]\n\n\n[CENTER][IMG]http://i.imgur.com/MLUejD4.jpg[/IMG][/CENTER]\n\n\n[CENTER][B][COLOR=&quot;brown&quot;][SIZE=6]Media Info[/SIZE][/COLOR][/B][/CENTER]\n\n[CENTER][quote=&quot;deep1007 @ Team MCT&quot;]\nGeneral\nComplete name                            : Mardaani [2014].mp4\nFormat                                   : MPEG-4\nFormat profile                           : Base Media\nCodec ID                                 : isom\nFile size                                : 1 014 MiB\nDuration                                 : 1h 53mn\nOverall bit rate mode                    : Variable\nOverall bit rate                         : 1 246 Kbps\nEncoded date                             : UTC 2014-08-23 17:18:41\nTagged date                              : UTC 2014-08-23 17:18:41\nWriting application                      : Lavf51.12.1\n\nVideo\nID                                       : 1\nFormat                                   : MPEG-4 Visual\nFormat profile                           : Simple@L1\nFormat settings, BVOP                    : No\nFormat settings, QPel                    : No\nFormat settings, GMC                     : No warppoints\nFormat settings, Matrix                  : Default (H.263)\nCodec ID                                 : 20\nDuration                                 : 1h 53mn\nBit rate                                 : 1 149 Kbps\nWidth                                    : 1 280 pixels\nHeight                                   : 544 pixels\nDisplay aspect ratio                     : 1.900\nFrame rate mode                          : Constant\nFrame rate                               : 23.976 fps\nColor space                              : YUV\nChroma subsampling                       : 4:2:0\nBit depth                                : 8 bits\nScan type                                : Progressive\nCompression mode                         : Lossy\nBits/(Pixel*Frame)                       : 0.069\nStream size                              : 935 MiB (92%)\nWriting library                          : Lavc51.40.4\nLanguage                                 : English\nEncoded date                             : UTC 2014-08-23 17:18:41\nTagged date                              : UTC 2014-08-23 17:18:41\n\nAudio\nID                                       : 2\nFormat                                   : AAC\nFormat/Info                              : Advanced Audio Codec\nFormat profile                           : LC\nCodec ID                                 : 40\nDuration                                 : 1h 53mn\nBit rate mode                            : Variable\nBit rate                                 : 94.0 Kbps\nChannel(s)                               : 2 channels\nChannel(s)_Original                      : 6 channels\nChannel positions                        : Front: L C R, Side: L R, LFE\nSampling rate                            : 32.0 KHz\nCompression mode                         : Lossy\nStream size                              : 76.4 MiB (8%)\nLanguage                                 : English\nEncoded date                             : UTC 2014-08-23 17:18:41\nTagged date                              : UTC 2014-08-23 17:18:41\n[/quote][/CENTER]\n\n[CENTER][B][COLOR=&quot;brown&quot;][SIZE=6]Screenshots[/SIZE][/COLOR][/B][/CENTER]\n[CENTER]\n[URL=http://imgbox.com/0TpHVRyF][IMG]http://i.imgbox.com/0TpHVRyF.png[/IMG][/URL] [URL=http://imgbox.com/vcjhuN2J][IMG]http://i.imgbox.com/vcjhuN2J.png[/IMG][/URL] [URL=http://imgbox.com/pmOJfX6E][IMG]http://i.imgbox.com/pmOJfX6E.png[/IMG][/URL] [URL=http://imgbox.com/rFYr8mpR][IMG]http://i.imgbox.com/rFYr8mpR.png[/IMG][/URL] [URL=http://imgbox.com/Cux1OCdF][IMG]http://i.imgbox.com/Cux1OCdF.png[/IMG][/URL] [URL=http://imgbox.com/8nJWtlAp][IMG]http://i.imgbox.com/8nJWtlAp.png[/IMG][/URL]\n[/CENTER]\n\n[CENTER]====================\n[url=http://www.datafilehost.com/d/e375ecd2][b][size=6][color=#FF0000]S[/color][color=#FF7700]A[/color][color=#FFFF00]M[/color][color=#00FF00]P[/color][color=#00FFFF]L[/color][color=#0077FF]E[/color][/size][/b][/url]\n====================[/CENTER]\n[CENTER]================================\n[b][size=5][color=#ff0000]D[/color][color=#ff2000]u[/color][color=#ff4000]a[/color] [color=#ff7f00]M[/color][color=#ff9900]e[/color][color=#ffb200]i[/color][color=#ffcc00]n[/color] [color=#ffff00]Y[/color][color=#bfff00]a[/color][color=#80ff00]a[/color][color=#40ff00]d[/color] [color=#00ff33]R[/color][color=#00ff66]a[/color][color=#00ff99]k[/color][color=#00ffcc]h[/color][color=#00ffff]n[/color][color=#00bfff]a[/color] [color=#0040ff]:[/color][color=#0000ff])[/color]\n[/size][/b]================================[/CENTER]\n\n[CENTER][IMG]http://i.imgbox.com/eZ0Ixm7q.png[/IMG][/CENTER]\n\n[center][b][color=red][size=5][b]\nDON'T FORGET TO GIVE CREDIT TO ==&gt; [color=black]deep1007 @ TEAM MCT[/color]\nOR I WILL REPORT U IF I FIND OUT U DIDN'T GIVE CREDIT TO ==&gt; [color=black]deep1007 @ TEAM MCT[/color][/b][/size][/color][/b][/center]\n\n[CENTER]==================================\n[COLOR=&quot;BLACK&quot;][SIZE=&quot;4&quot;][b]Team MCT -=: deep1007 :=-[/b][/SIZE][/COLOR]\n==================================[/CENTER]\n\n[CENTER][COLOR=&quot;Purple&quot;][SIZE=&quot;3&quot;][b]Don't Forget To Say &quot;Thanks&quot;! And &quot;Comment&quot;! If You Like My Post![/b][/SIZE][/COLOR][/CENTER]\n[CENTER][COLOR=&quot;Green&quot;][SIZE=&quot;3&quot;][b]If You Don't Reply, This Post Will &quot;Die&quot;![/b][/SIZE][/COLOR][/CENTER]\n[CENTER][COLOR=&quot;Brown&quot;][SIZE=&quot;3&quot;][b]Check Sample Before &quot;Commenting&quot;![/b][/SIZE][/COLOR][/CENTER]\n\n[quote=&quot;deep1007 @ MovieClub&quot;]Please Seed After downloading...and maintain your Ratio!\nIf Any Mistake, Forgive Me...All Suggestions, Instructions, Orders By Admin ETC, Heartly Accepted...\nIf You Want Any Other, Please PM Me...[/quote]","torrent":{"xt":"urn:btih:cdec86d88d0999d2403400a7c8d1f1b221d9d55d","amp;dn":"Mardaani+%5B2014%5D+-+DVDSCREENER+-+720p+-+x264+-+AAC+-+%28Cleaned%29+-+","amp;tr":["udp%3A%2F%2Ftracker.openbittorrent.com%3A80","udp%3A%2F%2Fopen.demonii.com%3A1337","udp%3A%2F%2Ftracker.coppersurfer.tk%3A6969","udp%3A%2F%2Fexodus.desync.com%3A6969"],"infoHash":"cdec86d88d0999d2403400a7c8d1f1b221d9d55d","infoHashBuffer":{"type":"Buffer","data":[205,236,134,216,141,9,153,210,64,52,0,167,200,209,241,178,33,217,213,93]},"announce":[],"urlList":[]}}